<?xml version="1.0" encoding="UTF-8" standalone="no"?> <svg id="Layer_1" data-name="Layer 1" xmlns="http://www.w3.org/2000/svg" viewBox="0 0 24 24"><defs><style>.cls-1{fill:#f5f0a1;}.cls-2{fill:#968c83;}.cls-3{fill:#f0f286;}</style></defs><title>star</title><path class="cls-1" d="M17.09,14.31a.68.68,0,0,0-.18.56L17.79,20a.63.63,0,0,1-.91.66l-4.59-2.41a.64.64,0,0,0-.58,0L7.12,20.64A.63.63,0,0,1,6.21,20l.88-5.11a.68.68,0,0,0-.18-.56L3.19,10.69a.62.62,0,0,1,.35-1.06l5.13-.75a.62.62,0,0,0,.47-.34l2.3-4.66a.63.63,0,0,1,1.12,0l2.3,4.66a.62.62,0,0,0,.47.34l5.13.75a.62.62,0,0,1,.35,1.06Z"/><path class="cls-2" d="M14,18.68l3.55,1.86a.62.62,0,0,1-.71.1L13.3,18.76l.16-.08A.6.6,0,0,1,14,18.68Z"/><path class="cls-2" d="M17.08,9.33a.59.59,0,0,1-.41-.25l3.79.55a.62.62,0,0,1,.42.26Z"/><path class="cls-3" d="M17.09,14.31a.68.68,0,0,0-.18.56L17.79,20a.63.63,0,0,1-.91.66l-4.59-2.41a.59.59,0,0,0-.29-.07V3.54a.62.62,0,0,1,.56.34l2.3,4.66a.62.62,0,0,0,.47.34l5.13.75a.62.62,0,0,1,.35,1.06Z"/></svg>